<svg width="1224" height="1906" viewBox="0 0 1224 1906" fill="none" xmlns="http://www.w3.org/2000/svg">
<rect width="1224" height="1906" fill="#1E1E1E"/>
<g id="JasonLogo">
<g id="Building_1">
<path id="Vector" d="M472.004 153.847L470.119 336.181V1165.73H306.968V336.181L472.004 153.847Z" fill="#231F20"/>
<path id="Vector_2" d="M447.439 356.555H327.201V1142.58H447.439V356.555Z" fill="white"/>
<path id="Vector_3" d="M346.643 354.41V1159.07" stroke="#231F20" stroke-width="11.49" stroke-miterlimit="10"/>
<path id="Vector_4" d="M380.631 349.092H368.186V1153.75H380.631V349.092Z" fill="#231F20"/>
<path id="Vector_5" d="M408.403 345.55H395.958V1150.21H408.403V345.55Z" fill="#231F20"/>
<path id="Vector_6" d="M436.163 343.774H423.718V1148.43H436.163V343.774Z" fill="#231F20"/>
<g id="Group">
<path id="Vector_7" d="M470.119 376.549H306.968V388.994H470.119V376.549Z" fill="#231F20"/>
</g>
<g id="Group_2">
<path id="Vector_8" d="M470.119 409.66H306.968V422.105H470.119V409.66Z" fill="#231F20"/>
</g>
<g id="Group_3">
<path id="Vector_9" d="M470.119 442.771H306.968V455.217H470.119V442.771Z" fill="#231F20"/>
</g>
<path id="Vector_10" d="M470.119 475.883H314.734V488.328H470.119V475.883Z" fill="#231F20"/>
<g id="Group_4">
<path id="Vector_11" d="M470.119 508.994H306.968V521.439H470.119V508.994Z" fill="#231F20"/>
</g>
<g id="Group_5">
<path id="Vector_12" d="M470.119 542.105H306.968V554.55H470.119V542.105Z" fill="#231F20"/>
</g>
<g id="Group_6">
<path id="Vector_13" d="M470.704 575.216H306.968V587.661H470.704V575.216Z" fill="#231F20"/>
</g>
<g id="Group_7">
<path id="Vector_14" d="M470.119 608.328H306.968V620.773H470.119V608.328Z" fill="#231F20"/>
</g>
<g id="Group_8">
<path id="Vector_15" d="M470.119 641.439H306.968V653.884H470.119V641.439Z" fill="#231F20"/>
</g>
<path id="Vector_16" d="M470.13 674.55H309.427V686.995H470.13V674.55Z" fill="#231F20"/>
<path id="Vector_17" d="M470.119 707.661H311.192V720.106H470.119V707.661Z" fill="#231F20"/>
<g id="Group_9">
<path id="Vector_18" d="M470.13 740.772H307.65V753.217H470.13V740.772Z" fill="#231F20"/>
</g>
<g id="Group_10">
<path id="Vector_19" d="M470.119 773.883H306.968V786.328H470.119V773.883Z" fill="#231F20"/>
</g>
<path id="Vector_20" d="M470.119 840.106H321.829V852.551H470.119V840.106Z" fill="#231F20"/>
<path id="Vector_21" d="M470.119 873.217H306.968V885.662H470.119V873.217Z" fill="#231F20"/>
<g id="Group_11">
<path id="Vector_22" d="M470.119 806.995H312.968V819.44H470.119V806.995Z" fill="#231F20"/>
</g>
<g id="Group_12">
<path id="Vector_23" d="M470.119 906.328H306.968V918.773H470.119V906.328Z" fill="#231F20"/>
</g>
<path id="Vector_24" d="M470.119 939.439H306.968V951.885H470.119V939.439Z" fill="#231F20"/>
<g id="Group_13">
<path id="Vector_25" d="M470.119 972.55H306.968V984.996H470.119V972.55Z" fill="#231F20"/>
</g>
<path id="Vector_26" d="M470.119 1005.66H306.968V1018.11H470.119V1005.66Z" fill="#231F20"/>
<path id="Vector_27" d="M470.119 1038.77H306.968V1051.22H470.119V1038.77Z" fill="#231F20"/>
<g id="Group_14">
<path id="Vector_28" d="M470.119 1071.88H306.968V1084.33H470.119V1071.88Z" fill="#231F20"/>
</g>
<g id="Group_15">
<path id="Vector_29" d="M470.119 1105H306.968V1117.44H470.119V1105Z" fill="#231F20"/>
</g>
</g>
<g id="Building_4">
<path id="Vector_30" d="M936.157 457.437V1055.82H793.01V457.437H821.67V383.286H845.954V335.715H886.441V383.286H910.725V457.437H936.157Z" fill="#231F20"/>
<path id="Vector_31" d="M913.909 481.168H813.828V1034.35H913.909V481.168Z" fill="white"/>
<path id="Vector_32" d="M827.021 472.373V1046.17" stroke="#231F20" stroke-width="4.92" stroke-miterlimit="10"/>
<path id="Vector_33" d="M898.507 427.283V1043.15" stroke="#231F20" stroke-width="4.92" stroke-miterlimit="10"/>
<path id="Vector_34" d="M880.635 427.283V1043.15" stroke="#231F20" stroke-width="4.92" stroke-miterlimit="10"/>
<path id="Vector_35" d="M862.764 426.178V1042.05" stroke="#231F20" stroke-width="4.92" stroke-miterlimit="10"/>
<path id="Vector_36" d="M844.892 425.084V1040.95" stroke="#231F20" stroke-width="4.92" stroke-miterlimit="10"/>
</g>
<g id="Building_2">
<path id="Vector_37" d="M753.205 275.862V867.368H509.567V275.862H556.91V200.324H597.744V151.887H621.075V75.938H628.7V0H635.989V75.938H644.416V151.887H667.746V200.324H705.667V275.862H753.205Z" fill="#231F20"/>
<path id="Vector_38" d="M723.506 304.716H538.107V832.426H723.506V304.716Z" fill="white"/>
<path id="Vector_39" d="M630.498 296.311V843.171" stroke="#231F20" stroke-width="8.21" stroke-miterlimit="10"/>
<path id="Vector_40" d="M597.116 298.12V844.98" stroke="#231F20" stroke-width="8.21" stroke-miterlimit="10"/>
<path id="Vector_41" d="M563.723 298.12V844.98" stroke="#231F20" stroke-width="8.21" stroke-miterlimit="10"/>
<path id="Vector_42" d="M665.699 291.805V838.665" stroke="#231F20" stroke-width="8.21" stroke-miterlimit="10"/>
<path id="Vector_43" d="M698.182 288.188V835.058" stroke="#231F20" stroke-width="8.21" stroke-miterlimit="10"/>
</g>
<g id="Building_3">
<path id="Vector_44" d="M848.25 535.52H651.468V820.285H848.25V535.52Z" fill="#231F20" stroke="#231F20" stroke-width="4.92" stroke-miterlimit="10"/>
<path id="Vector_45" d="M831.05 552.113H668.462V821.021H831.05V552.113Z" fill="white" stroke="#231F20" stroke-width="4.92" stroke-miterlimit="10"/>
<path id="Vector_46" d="M664.183 585.148H839.011" stroke="#231F20" stroke-width="14.77" stroke-miterlimit="10"/>
<path id="Vector_47" d="M659.548 623.686H834.375" stroke="#231F20" stroke-width="14.77" stroke-miterlimit="10"/>
<path id="Vector_48" d="M659.548 662.224H834.375" stroke="#231F20" stroke-width="14.77" stroke-miterlimit="10"/>
<path id="Vector_49" d="M660.208 700.751H835.036" stroke="#231F20" stroke-width="14.77" stroke-miterlimit="10"/>
<path id="Vector_50" d="M665.126 739.288H839.953" stroke="#231F20" stroke-width="14.77" stroke-miterlimit="10"/>
<path id="Vector_51" d="M705.386 545.669V821.519" stroke="#231F20" stroke-width="14.77" stroke-miterlimit="10"/>
<path id="Vector_52" d="M749.75 545.073V820.306" stroke="#231F20" stroke-width="14.77" stroke-miterlimit="10"/>
<path id="Vector_53" d="M794.115 545.073V822.115" stroke="#231F20" stroke-width="14.77" stroke-miterlimit="10"/>
<path id="Vector_54" d="M666.447 777.826H841.275" stroke="#231F20" stroke-width="14.77" stroke-miterlimit="10"/>
</g>
<g id="Outer_Dark_Inner_White">
<path id="Vector_55" d="M1066.65 1024.83C1042.83 968.51 1008.74 917.939 965.303 874.506C921.881 831.083 871.31 796.986 814.987 773.168C756.671 748.506 694.727 735.995 630.888 735.995C567.048 735.995 505.115 748.506 446.789 773.168C390.466 796.986 339.895 831.083 296.472 874.506C253.039 917.939 218.942 968.51 195.124 1024.83C170.461 1083.15 157.951 1145.09 157.951 1208.93C157.951 1272.77 170.461 1334.7 195.124 1393.02C218.942 1449.34 253.039 1499.91 296.472 1543.35C339.895 1586.78 390.466 1620.88 446.789 1644.7C505.104 1669.36 567.048 1681.87 630.888 1681.87C694.727 1681.87 756.661 1669.36 814.987 1644.7C871.31 1620.88 921.881 1586.78 965.303 1543.35C1008.74 1499.91 1042.83 1449.34 1066.65 1393.02C1091.31 1334.7 1103.82 1272.76 1103.82 1208.93C1103.82 1145.1 1091.31 1083.16 1066.65 1024.83ZM1032.51 1378.58C1010.57 1430.49 979.135 1477.09 939.102 1517.14C899.07 1557.17 852.441 1588.6 800.549 1610.56C769.745 1623.59 737.825 1632.93 705.104 1638.52C704.746 1638.6 704.389 1638.65 704.031 1638.71C680.062 1642.76 655.637 1644.79 630.91 1644.79C572.052 1644.79 514.982 1633.27 461.259 1610.56C409.356 1588.6 362.749 1557.17 322.706 1517.14C282.673 1477.1 251.241 1430.49 229.286 1378.58C206.562 1324.86 195.038 1267.78 195.038 1208.93C195.038 1150.09 206.562 1092.99 229.286 1039.27C251.241 987.378 282.673 940.761 322.706 900.717C362.738 860.685 409.356 829.253 461.259 807.309C514.982 784.585 572.052 773.06 630.91 773.06C689.767 773.06 746.837 784.585 800.56 807.309C852.463 829.253 899.081 860.685 939.113 900.717C979.146 940.75 1010.58 987.378 1032.52 1039.27C1055.25 1092.99 1066.77 1150.07 1066.77 1208.93C1066.77 1267.79 1055.25 1324.86 1032.52 1378.58H1032.51Z" fill="#231F20"/>
<path id="Vector_56" d="M631.776 1643.97C872.274 1643.97 1067.24 1449.01 1067.24 1208.51C1067.24 968.012 872.274 773.049 631.776 773.049C391.278 773.049 196.316 968.012 196.316 1208.51C196.316 1449.01 391.278 1643.97 631.776 1643.97Z" fill="white"/>
</g>
<g id="InnerCircleDark">
<g id="Group_16">
<path id="Vector_57" d="M677.636 1065.54H256.906C304.412 943.739 409.648 850.85 538.995 820.479L677.636 1065.54Z" fill="#231F20"/>
<path id="Vector_58" d="M925.585 938.389L776.98 1195.78L703.75 1066.35L703.295 1065.55L562.001 815.8C584.465 811.89 607.557 809.865 631.126 809.865C747.465 809.865 852.247 859.342 925.574 938.399L925.585 938.389Z" fill="#231F20"/>
<path id="Vector_59" d="M535.519 1087.88L318.612 1463.56C262.928 1394.64 229.579 1306.92 229.579 1211.41C229.579 1168.31 236.37 1126.79 248.934 1087.88H535.508H535.519Z" fill="#231F20"/>
<path id="Vector_60" d="M687.254 1609.08C668.917 1611.64 650.178 1612.97 631.137 1612.97C513.39 1612.97 407.471 1562.29 334.025 1481.54L475.99 1235.66L687.254 1609.09V1609.08Z" fill="#231F20"/>
<path id="Vector_61" d="M1003.04 1363.13C952.891 1485.95 843.657 1578.39 710.649 1605.1L573.764 1363.13H1003.04Z" fill="#231F20"/>
<path id="Vector_62" d="M1032.7 1211.41C1032.7 1256.68 1025.2 1300.2 1011.4 1340.78H719.076L941.139 956.152C998.339 1025.54 1032.71 1114.46 1032.71 1211.41H1032.7Z" fill="#231F20"/>
</g>
<path id="Vector_63" d="M703.761 1065.54V1066.34L703.306 1065.54H703.761Z" fill="white"/>
<path id="Vector_64" d="M706.165 1363.13L705.873 1363.65L704.963 1363.13H706.165Z" fill="white"/>
<path id="Vector_65" d="M705.093 1638.51L704.194 1639.02L704.021 1638.69C704.389 1638.64 704.735 1638.58 705.093 1638.51Z" fill="white"/>
</g>
<g id="Title">
<text id="@" transform="translate(13.4263 1512.22) rotate(55.73)" fill="white" xml:space="preserve" style="white-space: pre" font-family="Inter" font-size="12" letter-spacing="0em"><tspan x="0" y="11.8636">@</tspan></text>
<text id="j" transform="translate(155.76 1699.73) rotate(39.77)" fill="white" xml:space="preserve" style="white-space: pre" font-family="Inter" font-size="12" letter-spacing="0em"><tspan x="0" y="11.8636">j</tspan></text>
<text id="a" transform="translate(261.809 1784.85) rotate(27.64)" fill="white" xml:space="preserve" style="white-space: pre" font-family="Inter" font-size="12" letter-spacing="0em"><tspan x="0" y="11.8636">a</tspan></text>
<text id="y" transform="translate(370.05 1841.39) rotate(17.46)" fill="white" xml:space="preserve" style="white-space: pre" font-family="Inter" font-size="12" letter-spacing="0em"><tspan x="0" y="11.8636">y</tspan></text>
<text id="_" transform="translate(519.905 1885.15) rotate(3.46)" fill="white" xml:space="preserve" style="white-space: pre" font-family="Inter" font-size="12" letter-spacing="0em"><tspan x="0" y="11.8636">_</tspan></text>
<text id="f" transform="translate(694.32 1889.77) rotate(-9.53)" fill="white" xml:space="preserve" style="white-space: pre" font-family="Inter" font-size="12" letter-spacing="0em"><tspan x="0" y="11.8636">f</tspan></text>
<text id="l" transform="translate(823.359 1865.16) rotate(-20.39)" fill="white" xml:space="preserve" style="white-space: pre" font-family="Inter" font-size="12" letter-spacing="0em"><tspan x="0" y="11.8636">l</tspan></text>
<text id="i" transform="translate(933.476 1820.93) rotate(-28.44)" fill="white" xml:space="preserve" style="white-space: pre" font-family="Inter" font-size="12" letter-spacing="0em"><tspan x="0" y="11.8636">i</tspan></text>
<text id="c" transform="translate(998.936 1786.03) rotate(-37.1)" fill="white" xml:space="preserve" style="white-space: pre" font-family="Inter" font-size="12" letter-spacing="0em"><tspan x="0" y="11.8636">c</tspan></text>
<text id="k" transform="translate(1110.18 1698.22) rotate(-49.32)" fill="white" xml:space="preserve" style="white-space: pre" font-family="Inter" font-size="12" letter-spacing="0em"><tspan x="0" y="11.8636">k</tspan></text>
<text id="s" transform="translate(1205.5 1581.33) rotate(-61.56)" fill="white" xml:space="preserve" style="white-space: pre" font-family="Inter" font-size="12" letter-spacing="0em"><tspan x="0" y="11.8636">s</tspan></text>
</g>
</g>
</svg>
