<svg width="1224" height="1906" viewBox="0 0 1224 1906" fill="none" xmlns="http://www.w3.org/2000/svg">
<rect width="1224" height="1906" fill="#1E1E1E"/>
<g id="Frame 1">
<rect width="3780" height="2852" transform="translate(-1355 -432)" fill="white"/>
<g id="JasonLogo">
<g id="Building_1">
<path id="Vector" d="M472.004 153.847L470.119 336.181V1165.73H306.968V336.181L472.004 153.847Z" fill="#231F20"/>
<path id="Vector_2" d="M447.439 356.555H327.201V1142.58H447.439V356.555Z" fill="white"/>
<path id="Vector_3" d="M346.643 354.41V1159.07" stroke="#231F20" stroke-width="11.49" stroke-miterlimit="10"/>
<path id="Vector_4" d="M380.631 349.092H368.186V1153.75H380.631V349.092Z" fill="#231F20"/>
<path id="Vector_5" d="M408.403 345.55H395.958V1150.21H408.403V345.55Z" fill="#231F20"/>
<path id="Vector_6" d="M436.163 343.774H423.718V1148.43H436.163V343.774Z" fill="#231F20"/>
<g id="Group">
<path id="Vector_7" d="M470.119 376.549H306.968V388.994H470.119V376.549Z" fill="#231F20"/>
</g>
<g id="Group_2">
<path id="Vector_8" d="M470.119 409.66H306.968V422.105H470.119V409.66Z" fill="#231F20"/>
</g>
<g id="Group_3">
<path id="Vector_9" d="M470.119 442.771H306.968V455.217H470.119V442.771Z" fill="#231F20"/>
</g>
<path id="Vector_10" d="M470.119 475.883H314.734V488.328H470.119V475.883Z" fill="#231F20"/>
<g id="Group_4">
<path id="Vector_11" d="M470.119 508.994H306.968V521.439H470.119V508.994Z" fill="#231F20"/>
</g>
<g id="Group_5">
<path id="Vector_12" d="M470.119 542.105H306.968V554.55H470.119V542.105Z" fill="#231F20"/>
</g>
<g id="Group_6">
<path id="Vector_13" d="M470.704 575.216H306.968V587.661H470.704V575.216Z" fill="#231F20"/>
</g>
<g id="Group_7">
<path id="Vector_14" d="M470.119 608.328H306.968V620.773H470.119V608.328Z" fill="#231F20"/>
</g>
<g id="Group_8">
<path id="Vector_15" d="M470.119 641.439H306.968V653.884H470.119V641.439Z" fill="#231F20"/>
</g>
<path id="Vector_16" d="M470.13 674.55H309.427V686.995H470.13V674.55Z" fill="#231F20"/>
<path id="Vector_17" d="M470.119 707.661H311.192V720.106H470.119V707.661Z" fill="#231F20"/>
<g id="Group_9">
<path id="Vector_18" d="M470.13 740.772H307.65V753.217H470.13V740.772Z" fill="#231F20"/>
</g>
<g id="Group_10">
<path id="Vector_19" d="M470.119 773.883H306.968V786.328H470.119V773.883Z" fill="#231F20"/>
</g>
<path id="Vector_20" d="M470.119 840.106H321.829V852.551H470.119V840.106Z" fill="#231F20"/>
<path id="Vector_21" d="M470.119 873.217H306.968V885.662H470.119V873.217Z" fill="#231F20"/>
<g id="Group_11">
<path id="Vector_22" d="M470.119 806.995H312.968V819.44H470.119V806.995Z" fill="#231F20"/>
</g>
<g id="Group_12">
<path id="Vector_23" d="M470.119 906.328H306.968V918.773H470.119V906.328Z" fill="#231F20"/>
</g>
<path id="Vector_24" d="M470.119 939.439H306.968V951.885H470.119V939.439Z" fill="#231F20"/>
<g id="Group_13">
<path id="Vector_25" d="M470.119 972.55H306.968V984.996H470.119V972.55Z" fill="#231F20"/>
</g>
<path id="Vector_26" d="M470.119 1005.66H306.968V1018.11H470.119V1005.66Z" fill="#231F20"/>
<path id="Vector_27" d="M470.119 1038.77H306.968V1051.22H470.119V1038.77Z" fill="#231F20"/>
<g id="Group_14">
<path id="Vector_28" d="M470.119 1071.88H306.968V1084.33H470.119V1071.88Z" fill="#231F20"/>
</g>
<g id="Group_15">
<path id="Vector_29" d="M470.119 1105H306.968V1117.44H470.119V1105Z" fill="#231F20"/>
</g>
</g>
<g id="Building_4">
<path id="Vector_30" d="M936.157 457.437V1055.82H793.01V457.437H821.67V383.286H845.954V335.715H886.441V383.286H910.725V457.437H936.157Z" fill="#231F20"/>
<path id="Vector_31" d="M913.909 481.168H813.828V1034.35H913.909V481.168Z" fill="white"/>
<path id="Vector_32" d="M827.021 472.373V1046.17" stroke="#231F20" stroke-width="4.92" stroke-miterlimit="10"/>
<path id="Vector_33" d="M898.507 427.283V1043.15" stroke="#231F20" stroke-width="4.92" stroke-miterlimit="10"/>
<path id="Vector_34" d="M880.635 427.283V1043.15" stroke="#231F20" stroke-width="4.92" stroke-miterlimit="10"/>
<path id="Vector_35" d="M862.764 426.178V1042.05" stroke="#231F20" stroke-width="4.92" stroke-miterlimit="10"/>
<path id="Vector_36" d="M844.892 425.084V1040.95" stroke="#231F20" stroke-width="4.92" stroke-miterlimit="10"/>
</g>
<g id="Building_2">
<path id="Vector_37" d="M753.205 275.862V867.368H509.567V275.862H556.91V200.324H597.744V151.887H621.075V75.938H628.7V0H635.989V75.938H644.416V151.887H667.746V200.324H705.667V275.862H753.205Z" fill="#231F20"/>
<path id="Vector_38" d="M723.506 304.716H538.107V832.426H723.506V304.716Z" fill="white"/>
<path id="Vector_39" d="M630.498 296.311V843.171" stroke="#231F20" stroke-width="8.21" stroke-miterlimit="10"/>
<path id="Vector_40" d="M597.116 298.12V844.98" stroke="#231F20" stroke-width="8.21" stroke-miterlimit="10"/>
<path id="Vector_41" d="M563.723 298.12V844.98" stroke="#231F20" stroke-width="8.21" stroke-miterlimit="10"/>
<path id="Vector_42" d="M665.699 291.805V838.665" stroke="#231F20" stroke-width="8.21" stroke-miterlimit="10"/>
<path id="Vector_43" d="M698.182 288.188V835.058" stroke="#231F20" stroke-width="8.21" stroke-miterlimit="10"/>
</g>
<g id="Building_3">
<path id="Vector_44" d="M848.25 535.52H651.468V820.285H848.25V535.52Z" fill="#231F20" stroke="#231F20" stroke-width="4.92" stroke-miterlimit="10"/>
<path id="Vector_45" d="M831.05 552.113H668.462V821.021H831.05V552.113Z" fill="white" stroke="#231F20" stroke-width="4.92" stroke-miterlimit="10"/>
<path id="Vector_46" d="M664.183 585.148H839.011" stroke="#231F20" stroke-width="14.77" stroke-miterlimit="10"/>
<path id="Vector_47" d="M659.548 623.686H834.375" stroke="#231F20" stroke-width="14.77" stroke-miterlimit="10"/>
<path id="Vector_48" d="M659.548 662.224H834.375" stroke="#231F20" stroke-width="14.77" stroke-miterlimit="10"/>
<path id="Vector_49" d="M660.208 700.751H835.036" stroke="#231F20" stroke-width="14.77" stroke-miterlimit="10"/>
<path id="Vector_50" d="M665.126 739.288H839.953" stroke="#231F20" stroke-width="14.77" stroke-miterlimit="10"/>
<path id="Vector_51" d="M705.386 545.669V821.519" stroke="#231F20" stroke-width="14.77" stroke-miterlimit="10"/>
<path id="Vector_52" d="M749.75 545.073V820.306" stroke="#231F20" stroke-width="14.77" stroke-miterlimit="10"/>
<path id="Vector_53" d="M794.115 545.073V822.115" stroke="#231F20" stroke-width="14.77" stroke-miterlimit="10"/>
<path id="Vector_54" d="M666.447 777.826H841.275" stroke="#231F20" stroke-width="14.77" stroke-miterlimit="10"/>
</g>
<g id="Outer_Dark_Inner_White">
<path id="Vector_55" d="M1066.65 1024.83C1042.83 968.51 1008.74 917.939 965.303 874.506C921.881 831.083 871.31 796.986 814.987 773.168C756.671 748.506 694.727 735.995 630.888 735.995C567.048 735.995 505.115 748.506 446.789 773.168C390.466 796.986 339.895 831.083 296.472 874.506C253.039 917.939 218.942 968.51 195.124 1024.83C170.461 1083.15 157.951 1145.09 157.951 1208.93C157.951 1272.77 170.461 1334.7 195.124 1393.02C218.942 1449.34 253.039 1499.91 296.472 1543.35C339.895 1586.78 390.466 1620.88 446.789 1644.7C505.104 1669.36 567.048 1681.87 630.888 1681.87C694.727 1681.87 756.661 1669.36 814.987 1644.7C871.31 1620.88 921.881 1586.78 965.303 1543.35C1008.74 1499.91 1042.83 1449.34 1066.65 1393.02C1091.31 1334.7 1103.82 1272.76 1103.82 1208.93C1103.82 1145.1 1091.31 1083.16 1066.65 1024.83ZM1032.51 1378.58C1010.57 1430.49 979.135 1477.09 939.102 1517.14C899.07 1557.17 852.441 1588.6 800.549 1610.56C769.745 1623.59 737.825 1632.93 705.104 1638.52C704.746 1638.6 704.389 1638.65 704.031 1638.71C680.062 1642.76 655.637 1644.79 630.91 1644.79C572.052 1644.79 514.982 1633.27 461.259 1610.56C409.356 1588.6 362.749 1557.17 322.706 1517.14C282.673 1477.1 251.241 1430.49 229.286 1378.58C206.562 1324.86 195.038 1267.78 195.038 1208.93C195.038 1150.09 206.562 1092.99 229.286 1039.27C251.241 987.378 282.673 940.761 322.706 900.717C362.738 860.685 409.356 829.253 461.259 807.309C514.982 784.585 572.052 773.06 630.91 773.06C689.767 773.06 746.837 784.585 800.56 807.309C852.463 829.253 899.081 860.685 939.113 900.717C979.146 940.75 1010.58 987.378 1032.52 1039.27C1055.25 1092.99 1066.77 1150.07 1066.77 1208.93C1066.77 1267.79 1055.25 1324.86 1032.52 1378.58H1032.51Z" fill="#231F20"/>
<path id="Vector_56" d="M631.776 1643.97C872.274 1643.97 1067.24 1449.01 1067.24 1208.51C1067.24 968.012 872.274 773.049 631.776 773.049C391.278 773.049 196.316 968.012 196.316 1208.51C196.316 1449.01 391.278 1643.97 631.776 1643.97Z" fill="white"/>
</g>
<g id="InnerCircleDark">
<g id="Group_16">
<path id="Vector_57" d="M677.636 1065.54H256.906C304.412 943.739 409.648 850.85 538.995 820.479L677.636 1065.54Z" fill="#231F20"/>
<path id="Vector_58" d="M925.585 938.389L776.98 1195.78L703.75 1066.35L703.295 1065.55L562.001 815.8C584.465 811.89 607.557 809.865 631.126 809.865C747.465 809.865 852.247 859.342 925.574 938.399L925.585 938.389Z" fill="#231F20"/>
<path id="Vector_59" d="M535.519 1087.88L318.612 1463.56C262.928 1394.64 229.579 1306.92 229.579 1211.41C229.579 1168.31 236.37 1126.79 248.934 1087.88H535.508H535.519Z" fill="#231F20"/>
<path id="Vector_60" d="M687.254 1609.08C668.917 1611.64 650.178 1612.97 631.137 1612.97C513.39 1612.97 407.471 1562.29 334.025 1481.54L475.99 1235.66L687.254 1609.09V1609.08Z" fill="#231F20"/>
<path id="Vector_61" d="M1003.04 1363.13C952.891 1485.95 843.657 1578.39 710.649 1605.1L573.764 1363.13H1003.04Z" fill="#231F20"/>
<path id="Vector_62" d="M1032.7 1211.41C1032.7 1256.68 1025.2 1300.2 1011.4 1340.78H719.076L941.139 956.152C998.339 1025.54 1032.71 1114.46 1032.71 1211.41H1032.7Z" fill="#231F20"/>
</g>
<path id="Vector_63" d="M703.761 1065.54V1066.34L703.306 1065.54H703.761Z" fill="white"/>
<path id="Vector_64" d="M706.165 1363.13L705.873 1363.65L704.963 1363.13H706.165Z" fill="white"/>
<path id="Vector_65" d="M705.093 1638.51L704.194 1639.02L704.021 1638.69C704.389 1638.64 704.735 1638.58 705.093 1638.51Z" fill="white"/>
</g>
<g id="Title">
<path id="@" d="M4.95773 1525.19C4.46823 1524.47 4.13411 1523.77 3.95539 1523.08C3.77432 1522.4 3.74598 1521.74 3.87035 1521.1C3.99473 1520.47 4.26719 1519.87 4.68772 1519.3C5.10826 1518.73 5.67421 1518.2 6.38556 1517.72C7.07344 1517.25 7.75493 1516.93 8.43002 1516.76C9.10672 1516.58 9.76123 1516.55 10.3936 1516.67C11.0298 1516.79 11.6301 1517.04 12.1944 1517.44C12.7603 1517.85 13.2744 1518.39 13.7367 1519.06C14.1862 1519.72 14.4718 1520.37 14.5933 1521.02C14.7188 1521.66 14.712 1522.27 14.5729 1522.86C14.4378 1523.44 14.1993 1523.97 13.8574 1524.45C13.5171 1524.93 13.1052 1525.33 12.6215 1525.66C12.2811 1525.89 11.9248 1526.11 11.5526 1526.32C11.1804 1526.52 10.8116 1526.67 10.4461 1526.77C10.083 1526.86 9.73707 1526.86 9.40827 1526.76C9.08108 1526.66 8.7903 1526.43 8.53595 1526.05C8.42397 1525.89 8.32662 1525.69 8.24389 1525.46C8.16117 1525.22 8.12768 1524.99 8.14344 1524.76C8.15919 1524.52 8.25842 1524.32 8.44112 1524.16L8.41233 1524.12C8.23777 1524.15 8.04946 1524.15 7.84739 1524.12C7.64693 1524.09 7.44632 1524 7.24556 1523.86C7.04641 1523.73 6.86034 1523.52 6.68737 1523.25C6.49114 1522.94 6.37606 1522.62 6.34212 1522.3C6.31053 1521.98 6.34913 1521.67 6.45794 1521.37C6.5707 1521.06 6.74309 1520.78 6.97513 1520.5C7.2111 1520.23 7.49578 1519.98 7.82915 1519.75C8.1461 1519.53 8.46803 1519.38 8.79496 1519.3C9.12189 1519.21 9.44075 1519.18 9.75154 1519.22C10.0639 1519.25 10.3556 1519.34 10.6266 1519.49C10.9015 1519.63 11.1426 1519.83 11.3499 1520.07C11.5334 1520.29 11.6684 1520.51 11.7549 1520.73C11.8439 1520.96 11.8873 1521.16 11.8852 1521.34C11.8855 1521.52 11.8451 1521.67 11.7642 1521.77L11.793 1521.81L12.1874 1521.54L12.6961 1522.29L9.51266 1524.46C9.31545 1524.59 9.17931 1524.77 9.10424 1524.98C9.02918 1525.19 9.06363 1525.4 9.2076 1525.62C9.37077 1525.85 9.57772 1525.98 9.82844 1526C10.0808 1526.01 10.3943 1525.93 10.7691 1525.74C11.1454 1525.56 11.6012 1525.28 12.1365 1524.92C12.4511 1524.7 12.7314 1524.45 12.9774 1524.16C13.2274 1523.86 13.427 1523.54 13.5763 1523.18C13.7271 1522.83 13.8151 1522.45 13.8402 1522.05C13.8653 1521.64 13.8145 1521.23 13.688 1520.79C13.5655 1520.36 13.3514 1519.92 13.0459 1519.47C12.6699 1518.92 12.2475 1518.49 11.7786 1518.17C11.3136 1517.85 10.814 1517.65 10.2797 1517.56C9.74933 1517.48 9.19734 1517.52 8.62372 1517.68C8.05404 1517.83 7.47456 1518.11 6.88529 1518.51C6.28662 1518.92 5.80846 1519.36 5.45079 1519.84C5.09472 1520.31 4.86263 1520.82 4.7545 1521.34C4.64797 1521.87 4.66931 1522.42 4.81851 1523C4.96536 1523.57 5.24355 1524.16 5.65307 1524.76C5.82904 1525.02 6.02726 1525.25 6.24772 1525.47C6.46819 1525.69 6.67336 1525.87 6.86323 1526.03C7.0531 1526.18 7.19091 1526.29 7.27668 1526.35L6.76308 1526.99C6.60286 1526.89 6.41224 1526.74 6.19123 1526.55C5.97182 1526.36 5.75178 1526.14 5.5311 1525.9C5.31203 1525.67 5.1209 1525.43 4.95773 1525.19ZM7.48255 1522.87C7.69691 1523.19 7.93386 1523.4 8.19342 1523.51C8.45297 1523.61 8.74109 1523.63 9.05778 1523.54C9.37446 1523.46 9.72767 1523.28 10.1174 1523.02C10.5118 1522.75 10.7858 1522.49 10.9393 1522.24C11.0928 1521.99 11.1485 1521.74 11.1066 1521.49C11.0646 1521.23 10.9476 1520.96 10.7557 1520.68C10.5733 1520.42 10.3469 1520.23 10.0765 1520.14C9.80997 1520.05 9.52612 1520.03 9.22491 1520.09C8.92765 1520.14 8.64285 1520.27 8.37052 1520.45C8.07001 1520.66 7.81431 1520.89 7.60341 1521.15C7.39485 1521.41 7.26999 1521.68 7.22883 1521.98C7.19002 1522.27 7.27459 1522.57 7.48255 1522.87Z" fill="#231F20"/>
<path id="j" d="M152.978 1704.51L153.751 1705.15L149.258 1710.55C149 1710.86 148.723 1711.08 148.427 1711.22C148.134 1711.36 147.828 1711.4 147.51 1711.35C147.195 1711.3 146.876 1711.14 146.552 1710.87C146.526 1710.85 146.5 1710.82 146.474 1710.8C146.448 1710.78 146.421 1710.76 146.395 1710.74L146.995 1710.02C147.021 1710.04 147.045 1710.06 147.067 1710.08C147.089 1710.1 147.113 1710.12 147.139 1710.14C147.375 1710.33 147.606 1710.41 147.831 1710.36C148.055 1710.31 148.273 1710.16 148.486 1709.9L152.978 1704.51ZM154.056 1703.98C153.905 1703.86 153.818 1703.7 153.794 1703.51C153.773 1703.31 153.822 1703.15 153.942 1703C154.062 1702.86 154.218 1702.78 154.41 1702.77C154.605 1702.75 154.777 1702.81 154.928 1702.94C155.079 1703.06 155.165 1703.22 155.186 1703.41C155.21 1703.61 155.162 1703.77 155.042 1703.92C154.922 1704.06 154.765 1704.14 154.57 1704.15C154.378 1704.17 154.206 1704.11 154.056 1703.98Z" fill="#231F20"/>
<path id="a" d="M258.693 1796.94C258.325 1796.75 258.028 1796.5 257.801 1796.21C257.576 1795.91 257.444 1795.58 257.406 1795.23C257.37 1794.87 257.45 1794.5 257.648 1794.12C257.822 1793.79 258.028 1793.55 258.267 1793.42C258.507 1793.28 258.768 1793.2 259.049 1793.2C259.33 1793.2 259.618 1793.23 259.912 1793.32C260.211 1793.39 260.504 1793.49 260.791 1793.59C261.167 1793.73 261.471 1793.85 261.702 1793.94C261.936 1794.03 262.119 1794.07 262.25 1794.07C262.384 1794.06 262.488 1793.99 262.563 1793.85L262.579 1793.82C262.774 1793.44 262.824 1793.1 262.728 1792.79C262.635 1792.48 262.383 1792.21 261.973 1792C261.547 1791.78 261.165 1791.69 260.826 1791.75C260.487 1791.81 260.213 1791.92 260.004 1792.08L259.316 1791.34C259.652 1791.07 259.997 1790.9 260.351 1790.83C260.71 1790.77 261.059 1790.77 261.399 1790.85C261.744 1790.93 262.062 1791.04 262.354 1791.2C262.54 1791.3 262.742 1791.43 262.96 1791.6C263.181 1791.77 263.37 1791.99 263.525 1792.24C263.683 1792.5 263.766 1792.8 263.773 1793.15C263.78 1793.51 263.664 1793.91 263.422 1794.37L261.422 1798.19L260.531 1797.73L260.942 1796.94L260.897 1796.92C260.77 1797.01 260.599 1797.1 260.383 1797.16C260.167 1797.23 259.916 1797.26 259.629 1797.24C259.342 1797.21 259.03 1797.12 258.693 1796.94ZM259.248 1796.21C259.6 1796.39 259.933 1796.48 260.248 1796.47C260.564 1796.46 260.841 1796.38 261.079 1796.22C261.32 1796.07 261.503 1795.87 261.63 1795.63L262.057 1794.81C261.995 1794.84 261.891 1794.84 261.743 1794.81C261.598 1794.78 261.436 1794.73 261.255 1794.67C261.078 1794.61 260.907 1794.55 260.74 1794.49C260.577 1794.43 260.445 1794.38 260.343 1794.34C260.095 1794.25 259.853 1794.18 259.616 1794.15C259.383 1794.11 259.17 1794.12 258.977 1794.19C258.788 1794.26 258.634 1794.41 258.515 1794.63C258.353 1794.94 258.345 1795.24 258.491 1795.52C258.641 1795.79 258.893 1796.02 259.248 1796.21Z" fill="#231F20"/>
<path id="y" d="M367.209 1855.65C367.046 1855.6 366.906 1855.54 366.787 1855.48C366.667 1855.41 366.587 1855.36 366.546 1855.32L367.055 1854.55C367.27 1854.68 367.469 1854.77 367.653 1854.81C367.837 1854.85 368.02 1854.82 368.204 1854.72C368.389 1854.62 368.59 1854.44 368.806 1854.15L369.138 1853.72L368.804 1846.72L369.844 1847.05L370.003 1852.57L370.068 1852.59L373.356 1848.15L374.397 1848.48L369.496 1854.8C369.276 1855.09 369.044 1855.31 368.801 1855.46C368.558 1855.62 368.303 1855.72 368.038 1855.74C367.775 1855.78 367.499 1855.75 367.209 1855.65Z" fill="#231F20"/>
<path id="_" d="M524.608 1897.46L524.551 1898.39L519.107 1898.06L519.163 1897.13L524.608 1897.46Z" fill="#231F20"/>
<path id="f" d="M699.005 1894.51L699.146 1895.36L695.666 1895.94L695.525 1895.1L699.005 1894.51ZM697.651 1901.38L696.418 1894.03C696.356 1893.66 696.391 1893.34 696.523 1893.06C696.656 1892.79 696.85 1892.57 697.107 1892.4C697.363 1892.23 697.646 1892.12 697.954 1892.06C698.198 1892.02 698.4 1892.01 698.561 1892.02C698.721 1892.04 698.842 1892.05 698.924 1892.07L698.782 1892.98C698.729 1892.97 698.655 1892.96 698.561 1892.95C698.47 1892.94 698.353 1892.95 698.21 1892.97C697.882 1893.03 697.659 1893.15 697.541 1893.34C697.426 1893.53 697.396 1893.78 697.449 1894.1L698.643 1901.21L697.651 1901.38Z" fill="#231F20"/>
<path id="l" d="M826.305 1867.55L829.345 1875.73L828.403 1876.08L825.362 1867.9L826.305 1867.55Z" fill="#231F20"/>
<path id="i" d="M940 1831.04L936.883 1825.29L937.767 1824.81L940.885 1830.56L940 1831.04ZM936.813 1824.08C936.641 1824.18 936.46 1824.2 936.272 1824.15C936.086 1824.1 935.948 1823.99 935.859 1823.83C935.77 1823.66 935.754 1823.49 935.813 1823.3C935.875 1823.12 935.991 1822.98 936.164 1822.89C936.336 1822.79 936.515 1822.77 936.701 1822.82C936.89 1822.87 937.029 1822.98 937.118 1823.14C937.207 1823.31 937.221 1823.48 937.16 1823.67C937.101 1823.85 936.986 1823.99 936.813 1824.08Z" fill="#231F20"/>
<path id="c" d="M1009.11 1793.55C1008.62 1793.92 1008.11 1794.13 1007.58 1794.16C1007.06 1794.2 1006.54 1794.09 1006.05 1793.82C1005.55 1793.56 1005.1 1793.17 1004.71 1792.65C1004.31 1792.12 1004.05 1791.58 1003.94 1791.02C1003.83 1790.47 1003.86 1789.94 1004.04 1789.45C1004.22 1788.95 1004.54 1788.52 1005.02 1788.17C1005.38 1787.89 1005.77 1787.71 1006.16 1787.62C1006.56 1787.53 1006.95 1787.54 1007.32 1787.64C1007.69 1787.74 1008.02 1787.94 1008.32 1788.23L1007.51 1788.84C1007.27 1788.65 1006.98 1788.54 1006.63 1788.52C1006.28 1788.49 1005.93 1788.61 1005.57 1788.88C1005.26 1789.11 1005.05 1789.4 1004.94 1789.74C1004.83 1790.08 1004.82 1790.45 1004.91 1790.84C1005 1791.23 1005.19 1791.62 1005.49 1792.02C1005.8 1792.42 1006.13 1792.72 1006.48 1792.93C1006.83 1793.13 1007.19 1793.22 1007.55 1793.21C1007.91 1793.2 1008.25 1793.07 1008.57 1792.83C1008.78 1792.67 1008.94 1792.49 1009.05 1792.29C1009.17 1792.09 1009.23 1791.88 1009.25 1791.65C1009.26 1791.43 1009.22 1791.2 1009.13 1790.98L1009.93 1790.37C1010.12 1790.71 1010.22 1791.07 1010.22 1791.46C1010.23 1791.83 1010.15 1792.21 1009.96 1792.57C1009.78 1792.93 1009.5 1793.26 1009.11 1793.55Z" fill="#231F20"/>
<path id="k" d="M1118.68 1703.08L1117.73 1702.28L1117.86 1702.13L1117.52 1698.05L1118.33 1697.11L1118.68 1701.44L1118.62 1701.5L1118.68 1703.08ZM1119.88 1705.35L1113.26 1699.66L1113.92 1698.89L1120.54 1704.58L1119.88 1705.35ZM1122.59 1702.19L1118.47 1702.02L1118.41 1701.02L1123.43 1701.22L1122.59 1702.19Z" fill="#231F20"/>
<path id="s" d="M1214.23 1579.74L1214.02 1580.65C1213.86 1580.63 1213.69 1580.64 1213.52 1580.67C1213.34 1580.69 1213.16 1580.76 1212.99 1580.88C1212.82 1581 1212.66 1581.19 1212.52 1581.45C1212.33 1581.8 1212.26 1582.14 1212.29 1582.46C1212.32 1582.78 1212.47 1583.01 1212.71 1583.14C1212.93 1583.26 1213.15 1583.28 1213.36 1583.18C1213.58 1583.09 1213.82 1582.9 1214.09 1582.61L1214.76 1581.87C1215.16 1581.42 1215.56 1581.14 1215.96 1581.03C1216.35 1580.91 1216.74 1580.96 1217.15 1581.18C1217.48 1581.36 1217.72 1581.62 1217.88 1581.95C1218.04 1582.27 1218.1 1582.65 1218.07 1583.07C1218.03 1583.48 1217.9 1583.92 1217.65 1584.36C1217.33 1584.95 1216.94 1585.37 1216.48 1585.61C1216.02 1585.86 1215.51 1585.9 1214.97 1585.74L1215.21 1584.79C1215.57 1584.88 1215.88 1584.85 1216.16 1584.71C1216.43 1584.57 1216.67 1584.32 1216.87 1583.96C1217.09 1583.55 1217.18 1583.17 1217.13 1582.83C1217.09 1582.49 1216.94 1582.26 1216.7 1582.12C1216.5 1582.01 1216.29 1581.99 1216.08 1582.06C1215.87 1582.12 1215.65 1582.28 1215.42 1582.54L1214.68 1583.37C1214.27 1583.83 1213.87 1584.12 1213.47 1584.22C1213.07 1584.32 1212.68 1584.27 1212.28 1584.05C1211.95 1583.88 1211.72 1583.63 1211.56 1583.31C1211.42 1582.99 1211.35 1582.63 1211.38 1582.24C1211.42 1581.84 1211.54 1581.44 1211.76 1581.04C1212.07 1580.47 1212.43 1580.09 1212.86 1579.9C1213.29 1579.71 1213.74 1579.65 1214.23 1579.74Z" fill="#231F20"/>
</g>
</g>
</g>
</svg>
