<svg width="2427" height="2078" viewBox="0 0 2427 2078" fill="none" xmlns="http://www.w3.org/2000/svg">
<g id="Jason">
<g id="Building_1">
<path id="Vector" d="M1074 153.847L1072.12 336.181V1165.73H908.968V336.181L1074 153.847Z" fill="#231F20"/>
<path id="Vector_2" d="M1049.44 356.555H929.201V1142.58H1049.44V356.555Z" fill="white"/>
<path id="Vector_3" d="M948.643 354.41V1159.07" stroke="#231F20" stroke-width="11.49" stroke-miterlimit="10"/>
<path id="Vector_4" d="M982.631 349.092H970.186V1153.75H982.631V349.092Z" fill="#231F20"/>
<path id="Vector_5" d="M1010.4 345.55H997.958V1150.21H1010.4V345.55Z" fill="#231F20"/>
<path id="Vector_6" d="M1038.16 343.774H1025.72V1148.43H1038.16V343.774Z" fill="#231F20"/>
<g id="Group">
<path id="Vector_7" d="M1072.12 376.549H908.967V388.994H1072.12V376.549Z" fill="#231F20"/>
</g>
<g id="Group_2">
<path id="Vector_8" d="M1072.12 409.66H908.968V422.105H1072.12V409.66Z" fill="#231F20"/>
</g>
<g id="Group_3">
<path id="Vector_9" d="M1072.12 442.771H908.968V455.217H1072.12V442.771Z" fill="#231F20"/>
</g>
<path id="Vector_10" d="M1072.12 475.883H916.734V488.328H1072.12V475.883Z" fill="#231F20"/>
<g id="Group_4">
<path id="Vector_11" d="M1072.12 508.994H908.968V521.439H1072.12V508.994Z" fill="#231F20"/>
</g>
<g id="Group_5">
<path id="Vector_12" d="M1072.12 542.105H908.968V554.55H1072.12V542.105Z" fill="#231F20"/>
</g>
<g id="Group_6">
<path id="Vector_13" d="M1072.7 575.216H908.968V587.661H1072.7V575.216Z" fill="#231F20"/>
</g>
<g id="Group_7">
<path id="Vector_14" d="M1072.12 608.328H908.968V620.773H1072.12V608.328Z" fill="#231F20"/>
</g>
<g id="Group_8">
<path id="Vector_15" d="M1072.12 641.439H908.968V653.884H1072.12V641.439Z" fill="#231F20"/>
</g>
<path id="Vector_16" d="M1072.13 674.55H911.426V686.995H1072.13V674.55Z" fill="#231F20"/>
<path id="Vector_17" d="M1072.12 707.661H913.192V720.106H1072.12V707.661Z" fill="#231F20"/>
<g id="Group_9">
<path id="Vector_18" d="M1072.13 740.772H909.65V753.217H1072.13V740.772Z" fill="#231F20"/>
</g>
<g id="Group_10">
<path id="Vector_19" d="M1072.12 773.883H908.968V786.328H1072.12V773.883Z" fill="#231F20"/>
</g>
<path id="Vector_20" d="M1072.12 840.106H923.828V852.551H1072.12V840.106Z" fill="#231F20"/>
<path id="Vector_21" d="M1072.12 873.217H908.968V885.662H1072.12V873.217Z" fill="#231F20"/>
<g id="Group_11">
<path id="Vector_22" d="M1072.12 806.995H914.968V819.44H1072.12V806.995Z" fill="#231F20"/>
</g>
<g id="Group_12">
<path id="Vector_23" d="M1072.12 906.328H908.968V918.773H1072.12V906.328Z" fill="#231F20"/>
</g>
<path id="Vector_24" d="M1072.12 939.439H908.968V951.885H1072.12V939.439Z" fill="#231F20"/>
<g id="Group_13">
<path id="Vector_25" d="M1072.12 972.55H908.968V984.996H1072.12V972.55Z" fill="#231F20"/>
</g>
<path id="Vector_26" d="M1072.12 1005.66H908.968V1018.11H1072.12V1005.66Z" fill="#231F20"/>
<path id="Vector_27" d="M1072.12 1038.77H908.968V1051.22H1072.12V1038.77Z" fill="#231F20"/>
<g id="Group_14">
<path id="Vector_28" d="M1072.12 1071.88H908.968V1084.33H1072.12V1071.88Z" fill="#231F20"/>
</g>
<g id="Group_15">
<path id="Vector_29" d="M1072.12 1105H908.967V1117.44H1072.12V1105Z" fill="#231F20"/>
</g>
</g>
<g id="Building_4">
<path id="Vector_30" d="M1538.16 457.437V1055.82H1395.01V457.437H1423.67V383.286H1447.95V335.715H1488.44V383.286H1512.72V457.437H1538.16Z" fill="#231F20"/>
<path id="Vector_31" d="M1515.91 481.168H1415.83V1034.35H1515.91V481.168Z" fill="white"/>
<path id="Vector_32" d="M1429.02 472.373V1046.17" stroke="#231F20" stroke-width="4.92" stroke-miterlimit="10"/>
<path id="Vector_33" d="M1500.51 427.283V1043.15" stroke="#231F20" stroke-width="4.92" stroke-miterlimit="10"/>
<path id="Vector_34" d="M1482.64 427.283V1043.15" stroke="#231F20" stroke-width="4.92" stroke-miterlimit="10"/>
<path id="Vector_35" d="M1464.76 426.178V1042.05" stroke="#231F20" stroke-width="4.92" stroke-miterlimit="10"/>
<path id="Vector_36" d="M1446.89 425.084V1040.95" stroke="#231F20" stroke-width="4.92" stroke-miterlimit="10"/>
</g>
<g id="Building_2">
<path id="Vector_37" d="M1355.2 275.862V867.368H1111.57V275.862H1158.91V200.324H1199.74V151.887H1223.07V75.938H1230.7V0H1237.99V75.938H1246.42V151.887H1269.75V200.324H1307.67V275.862H1355.2Z" fill="#231F20"/>
<path id="Vector_38" d="M1325.51 304.716H1140.11V832.426H1325.51V304.716Z" fill="white"/>
<path id="Vector_39" d="M1232.5 296.311V843.171" stroke="#231F20" stroke-width="8.21" stroke-miterlimit="10"/>
<path id="Vector_40" d="M1199.12 298.12V844.98" stroke="#231F20" stroke-width="8.21" stroke-miterlimit="10"/>
<path id="Vector_41" d="M1165.72 298.12V844.98" stroke="#231F20" stroke-width="8.21" stroke-miterlimit="10"/>
<path id="Vector_42" d="M1267.7 291.805V838.665" stroke="#231F20" stroke-width="8.21" stroke-miterlimit="10"/>
<path id="Vector_43" d="M1300.18 288.188V835.058" stroke="#231F20" stroke-width="8.21" stroke-miterlimit="10"/>
</g>
<g id="Building_3">
<path id="Vector_44" d="M1450.25 535.52H1253.47V820.284H1450.25V535.52Z" fill="#231F20" stroke="#231F20" stroke-width="4.92" stroke-miterlimit="10"/>
<path id="Vector_45" d="M1433.05 552.113H1270.46V821.021H1433.05V552.113Z" fill="white" stroke="#231F20" stroke-width="4.92" stroke-miterlimit="10"/>
<path id="Vector_46" d="M1266.18 585.148H1441.01" stroke="#231F20" stroke-width="14.77" stroke-miterlimit="10"/>
<path id="Vector_47" d="M1261.55 623.686H1436.37" stroke="#231F20" stroke-width="14.77" stroke-miterlimit="10"/>
<path id="Vector_48" d="M1261.55 662.224H1436.37" stroke="#231F20" stroke-width="14.77" stroke-miterlimit="10"/>
<path id="Vector_49" d="M1262.21 700.75H1437.04" stroke="#231F20" stroke-width="14.77" stroke-miterlimit="10"/>
<path id="Vector_50" d="M1267.13 739.288H1441.95" stroke="#231F20" stroke-width="14.77" stroke-miterlimit="10"/>
<path id="Vector_51" d="M1307.39 545.668V821.519" stroke="#231F20" stroke-width="14.77" stroke-miterlimit="10"/>
<path id="Vector_52" d="M1351.75 545.073V820.306" stroke="#231F20" stroke-width="14.77" stroke-miterlimit="10"/>
<path id="Vector_53" d="M1396.12 545.073V822.115" stroke="#231F20" stroke-width="14.77" stroke-miterlimit="10"/>
<path id="Vector_54" d="M1268.45 777.826H1443.27" stroke="#231F20" stroke-width="14.77" stroke-miterlimit="10"/>
</g>
<g id="Outer_Dark_Inner_White">
<path id="Vector_55" d="M1668.65 1024.83C1644.83 968.51 1610.74 917.939 1567.3 874.506C1523.88 831.083 1473.31 796.986 1416.99 773.169C1358.67 748.506 1296.73 735.996 1232.89 735.996C1169.05 735.996 1107.12 748.506 1048.79 773.169C992.466 796.986 941.895 831.083 898.472 874.506C855.039 917.939 820.942 968.51 797.124 1024.83C772.461 1083.15 759.951 1145.09 759.951 1208.93C759.951 1272.77 772.461 1334.7 797.124 1393.02C820.942 1449.34 855.039 1499.91 898.472 1543.35C941.895 1586.78 992.466 1620.88 1048.79 1644.7C1107.1 1669.36 1169.05 1681.87 1232.89 1681.87C1296.73 1681.87 1358.66 1669.36 1416.99 1644.7C1473.31 1620.88 1523.88 1586.78 1567.3 1543.35C1610.74 1499.91 1644.83 1449.34 1668.65 1393.02C1693.31 1334.7 1705.82 1272.76 1705.82 1208.93C1705.82 1145.1 1693.31 1083.16 1668.65 1024.83ZM1634.51 1378.58C1612.57 1430.49 1581.13 1477.09 1541.1 1517.14C1501.07 1557.17 1454.44 1588.6 1402.55 1610.56C1371.74 1623.59 1339.82 1632.93 1307.1 1638.52C1306.75 1638.6 1306.39 1638.65 1306.03 1638.71C1282.06 1642.76 1257.64 1644.79 1232.91 1644.79C1174.05 1644.79 1116.98 1633.27 1063.26 1610.56C1011.36 1588.6 964.749 1557.17 924.706 1517.14C884.673 1477.1 853.241 1430.49 831.286 1378.58C808.562 1324.86 797.037 1267.78 797.037 1208.93C797.037 1150.09 808.562 1092.99 831.286 1039.27C853.241 987.378 884.673 940.761 924.706 900.718C964.738 860.685 1011.36 829.253 1063.26 807.309C1116.98 784.585 1174.05 773.06 1232.91 773.06C1291.77 773.06 1348.84 784.585 1402.56 807.309C1454.46 829.253 1501.08 860.685 1541.11 900.718C1581.15 940.75 1612.58 987.378 1634.52 1039.27C1657.25 1092.99 1668.77 1150.07 1668.77 1208.93C1668.77 1267.79 1657.25 1324.86 1634.52 1378.58H1634.51Z" fill="#231F20"/>
<path id="Vector_56" d="M1233.78 1643.97C1474.27 1643.97 1669.24 1449.01 1669.24 1208.51C1669.24 968.012 1474.27 773.049 1233.78 773.049C993.278 773.049 798.315 968.012 798.315 1208.51C798.315 1449.01 993.278 1643.97 1233.78 1643.97Z" fill="white"/>
</g>
<g id="Beyblade">
<path id="Vector_57" d="M1278.06 1062.67H857.327C904.833 940.874 1010.07 847.986 1139.42 817.615L1278.06 1062.67Z" fill="#231F20"/>
<path id="Vector_58" d="M1526.01 935.524L1377.4 1192.92L1304.17 1063.48L1303.72 1062.68L1162.42 812.936C1184.89 809.025 1207.98 807 1231.55 807C1347.89 807 1452.67 856.477 1526 935.535L1526.01 935.524Z" fill="#231F20"/>
<path id="Vector_59" d="M1135.94 1085.02L919.033 1460.7C863.349 1391.78 830 1304.06 830 1208.55C830 1165.45 836.791 1123.92 849.355 1085.02H1135.93H1135.94Z" fill="#231F20"/>
<path id="Vector_60" d="M1287.68 1606.22C1269.34 1608.77 1250.6 1610.11 1231.56 1610.11C1113.81 1610.11 1007.89 1559.43 934.446 1478.68L1076.41 1232.8L1287.68 1606.23V1606.22Z" fill="#231F20"/>
<path id="Vector_61" d="M1603.46 1360.26C1553.31 1483.09 1444.08 1575.52 1311.07 1602.23L1174.19 1360.26H1603.46Z" fill="#231F20"/>
<path id="Vector_62" d="M1633.12 1208.55C1633.12 1253.81 1625.62 1297.33 1611.82 1337.92H1319.5L1541.56 953.287C1598.76 1022.67 1633.13 1111.6 1633.13 1208.55H1633.12Z" fill="#231F20"/>
</g>
<g id="Title" filter="url(#filter0_d_22_282)">
<text id="@" transform="translate(615.426 1512.22) rotate(55.73)" fill="#0E0000" xml:space="preserve" style="white-space: pre" font-family="Inter" font-size="96" letter-spacing="0em"><tspan x="0" y="92.9091">@</tspan></text>
<text id="j" transform="translate(757.76 1699.73) rotate(39.77)" fill="#0E0000" xml:space="preserve" style="white-space: pre" font-family="Inter" font-size="96" letter-spacing="0em"><tspan x="0" y="92.9091">j</tspan></text>
<text id="a" transform="translate(863.809 1784.85) rotate(27.64)" fill="#0E0000" xml:space="preserve" style="white-space: pre" font-family="Inter" font-size="96" letter-spacing="0em"><tspan x="0" y="92.9091">a</tspan></text>
<text id="y" transform="translate(972.05 1841.39) rotate(17.46)" fill="#0E0000" xml:space="preserve" style="white-space: pre" font-family="Inter" font-size="96" letter-spacing="0em"><tspan x="0" y="92.9091">y</tspan></text>
<text id="_" transform="translate(1121.9 1885.15) rotate(3.46)" fill="#0E0000" xml:space="preserve" style="white-space: pre" font-family="Inter" font-size="96" letter-spacing="0em"><tspan x="0" y="92.9091">_</tspan></text>
<text id="f" transform="translate(1296.32 1889.77) rotate(-9.53)" fill="#0E0000" xml:space="preserve" style="white-space: pre" font-family="Inter" font-size="96" letter-spacing="0em"><tspan x="0" y="92.9091">f</tspan></text>
<text id="l" transform="translate(1425.36 1865.16) rotate(-20.39)" fill="#0E0000" xml:space="preserve" style="white-space: pre" font-family="Inter" font-size="96" letter-spacing="0em"><tspan x="0" y="92.9091">l</tspan></text>
<text id="i" transform="translate(1535.48 1820.93) rotate(-28.44)" fill="#0E0000" xml:space="preserve" style="white-space: pre" font-family="Inter" font-size="96" letter-spacing="0em"><tspan x="0" y="92.9091">i</tspan></text>
<text id="c" transform="translate(1600.94 1786.03) rotate(-37.1)" fill="#0E0000" xml:space="preserve" style="white-space: pre" font-family="Inter" font-size="96" letter-spacing="0em"><tspan x="0" y="92.9091">c</tspan></text>
<text id="k" transform="translate(1712.18 1698.22) rotate(-49.32)" fill="#0E0000" xml:space="preserve" style="white-space: pre" font-family="Inter" font-size="96" letter-spacing="0em"><tspan x="0" y="92.9091">k</tspan></text>
<text id="s" transform="translate(1807.5 1581.33) rotate(-61.56)" fill="#0E0000" xml:space="preserve" style="white-space: pre" font-family="Inter" font-size="96" letter-spacing="0em"><tspan x="0" y="92.9091">s</tspan></text>
</g>
</g>
<defs>
<filter id="filter0_d_22_282" x="521.969" y="1530.57" width="1393.89" height="465.528" filterUnits="userSpaceOnUse" color-interpolation-filters="sRGB">
<feFlood flood-opacity="0" result="BackgroundImageFix"/>
<feColorMatrix in="SourceAlpha" type="matrix" values="0 0 0 0 0 0 0 0 0 0 0 0 0 0 0 0 0 0 127 0" result="hardAlpha"/>
<feOffset dy="4"/>
<feGaussianBlur stdDeviation="2"/>
<feComposite in2="hardAlpha" operator="out"/>
<feColorMatrix type="matrix" values="0 0 0 0 0 0 0 0 0 0 0 0 0 0 0 0 0 0 0.25 0"/>
<feBlend mode="normal" in2="BackgroundImageFix" result="effect1_dropShadow_22_282"/>
<feBlend mode="normal" in="SourceGraphic" in2="effect1_dropShadow_22_282" result="shape"/>
</filter>
</defs>
</svg>
