<?xml version="1.0" encoding="UTF-8"?><svg id="Layer_9" xmlns="http://www.w3.org/2000/svg" viewBox="0 0 2000 2000"><defs><style>.cls-1,.cls-2,.cls-3,.cls-4,.cls-5{fill:none;}.cls-2{stroke-width:14.77px;}.cls-2,.cls-3,.cls-6,.cls-7,.cls-4,.cls-5{stroke:#231f20;stroke-miterlimit:10;}.cls-3{stroke-width:11.49px;}.cls-8,.cls-6{fill:#fff;}.cls-9,.cls-10,.cls-7{fill:#231f20;}.cls-10{font-family:Prohibition-Regular, Prohibition;font-size:221.48px;}.cls-6,.cls-7,.cls-5{stroke-width:4.92px;}.cls-4{stroke-width:8.21px;}</style></defs><g><polygon class="cls-9" points="852.49 218.48 850.75 386.82 850.75 1152.7 700.12 1152.7 700.12 386.82 852.49 218.48"/><rect class="cls-8" x="718.8" y="405.63" width="111.01" height="725.7"/><line class="cls-3" x1="736.75" y1="403.65" x2="736.75" y2="1146.55"/><rect class="cls-9" x="756.64" y="398.74" width="11.49" height="742.9"/><rect class="cls-9" x="782.28" y="395.47" width="11.49" height="742.9"/><rect class="cls-9" x="807.91" y="393.83" width="11.49" height="742.9"/><g><rect class="cls-1" x="850.75" y="424.09" width="3.82" height="11.49"/><rect class="cls-1" x="699.11" y="424.09" width="1.01" height="11.49"/><rect class="cls-9" x="700.12" y="424.09" width="150.63" height="11.49"/></g><g><rect class="cls-1" x="850.75" y="454.66" width="10.36" height="11.49"/><rect class="cls-1" x="697.48" y="454.66" width="2.64" height="11.49"/><rect class="cls-9" x="700.12" y="454.66" width="150.63" height="11.49"/></g><g><rect class="cls-1" x="850.75" y="485.23" width="38.18" height="11.49"/><rect class="cls-1" x="684.39" y="485.23" width="15.73" height="11.49"/><rect class="cls-9" x="700.12" y="485.23" width="150.63" height="11.49"/></g><rect class="cls-9" x="707.29" y="515.8" width="143.46" height="11.49"/><g><rect class="cls-1" x="850.75" y="546.37" width="28.36" height="11.49"/><rect class="cls-1" x="850.75" y="515.8" width="57.82" height="11.49"/><rect class="cls-1" x="695.84" y="546.37" width="4.28" height="11.49"/><rect class="cls-9" x="700.12" y="546.37" width="150.63" height="11.49"/></g><g><rect class="cls-1" x="850.75" y="576.94" width="39.81" height="11.49"/><rect class="cls-1" x="674.57" y="576.94" width="25.56" height="11.49"/><rect class="cls-9" x="700.12" y="576.94" width="150.63" height="11.49"/></g><g><rect class="cls-1" x="697.48" y="607.51" width="2.64" height="11.49"/><rect class="cls-9" x="700.12" y="607.51" width="151.17" height="11.49"/></g><g><rect class="cls-1" x="686.02" y="638.08" width="14.1" height="11.49"/><rect class="cls-9" x="700.12" y="638.08" width="150.63" height="11.49"/></g><g><rect class="cls-1" x="697.48" y="668.65" width="2.64" height="11.49"/><rect class="cls-9" x="700.12" y="668.65" width="150.63" height="11.49"/></g><rect class="cls-9" x="702.39" y="699.22" width="148.37" height="11.49"/><rect class="cls-9" x="704.02" y="729.79" width="146.73" height="11.49"/><g><rect class="cls-1" x="850.75" y="790.93" width="7.08" height="11.49"/><rect class="cls-1" x="850.75" y="760.36" width="12" height="11.49"/><rect class="cls-9" x="700.75" y="760.36" width="150.01" height="11.49"/></g><g><rect class="cls-1" x="684.39" y="790.93" width="15.73" height="11.49"/><rect class="cls-9" x="700.12" y="790.93" width="150.63" height="11.49"/></g><rect class="cls-9" x="713.84" y="852.07" width="136.91" height="11.49"/><rect class="cls-9" x="700.12" y="882.64" width="150.63" height="11.49"/><g><rect class="cls-1" x="850.75" y="638.08" width="75.81" height="11.49"/><rect class="cls-1" x="850.75" y="699.22" width="49.63" height="11.49"/><rect class="cls-1" x="850.75" y="729.79" width="44.73" height="11.49"/><rect class="cls-1" x="850.75" y="668.65" width="51.27" height="11.49"/><rect class="cls-1" x="850.75" y="821.5" width="54.54" height="11.49"/><rect class="cls-9" x="705.66" y="821.5" width="145.09" height="11.49"/></g><g><rect class="cls-1" x="689.3" y="913.21" width="10.82" height="11.49"/><rect class="cls-1" x="651.66" y="882.64" width="48.46" height="11.49"/><rect class="cls-9" x="700.12" y="913.21" width="150.63" height="11.49"/></g><rect class="cls-9" x="700.12" y="943.78" width="150.63" height="11.49"/><g><rect class="cls-1" x="638.57" y="974.35" width="61.55" height="11.49"/><rect class="cls-1" x="684.39" y="943.78" width="15.73" height="11.49"/><rect class="cls-9" x="700.12" y="974.35" width="150.63" height="11.49"/></g><rect class="cls-9" x="700.12" y="1004.92" width="150.63" height="11.49"/><rect class="cls-9" x="700.12" y="1035.49" width="150.63" height="11.49"/><g><rect class="cls-1" x="672.93" y="1066.06" width="27.19" height="11.49"/><rect class="cls-1" x="692.57" y="1035.49" width="7.55" height="11.49"/><rect class="cls-1" x="690.93" y="1004.92" width="9.19" height="11.49"/><rect class="cls-9" x="700.12" y="1066.06" width="150.63" height="11.49"/></g><g><rect class="cls-1" x="850.75" y="974.35" width="113.45" height="11.49"/><rect class="cls-1" x="850.75" y="943.78" width="36.54" height="11.49"/><rect class="cls-1" x="850.75" y="913.21" width="113.45" height="11.49"/><rect class="cls-1" x="850.75" y="1004.92" width="128.18" height="11.49"/><rect class="cls-1" x="850.75" y="1035.49" width="57.82" height="11.49"/><rect class="cls-1" x="850.75" y="1096.63" width="56.17" height="11.49"/><rect class="cls-1" x="850.75" y="882.64" width="56.17" height="11.49"/><rect class="cls-1" x="850.75" y="852.07" width="18.54" height="11.49"/><rect class="cls-1" x="850.75" y="1066.06" width="75.81" height="11.49"/><rect class="cls-1" x="677.84" y="1096.63" width="22.28" height="11.49"/><rect class="cls-9" x="700.12" y="1096.63" width="150.63" height="11.49"/></g></g><g><polygon class="cls-9" points="1281.02 498.77 1281.02 1051.23 1148.86 1051.23 1148.86 498.77 1175.32 498.77 1175.32 430.31 1197.74 430.31 1197.74 386.39 1235.12 386.39 1235.12 430.31 1257.54 430.31 1257.54 498.77 1281.02 498.77"/><rect class="cls-8" x="1168.08" y="520.68" width="92.4" height="510.73"/><line class="cls-5" x1="1180.26" y1="512.56" x2="1180.26" y2="1042.32"/><line class="cls-5" x1="1246.26" y1="470.93" x2="1246.26" y2="1039.53"/><line class="cls-5" x1="1229.76" y1="470.93" x2="1229.76" y2="1039.53"/><line class="cls-5" x1="1213.26" y1="469.91" x2="1213.26" y2="1038.52"/><line class="cls-5" x1="1196.76" y1="468.9" x2="1196.76" y2="1037.5"/></g><g><polygon class="cls-9" points="1112.11 331.13 1112.11 877.24 887.17 877.24 887.17 331.13 930.88 331.13 930.88 261.39 968.58 261.39 968.58 216.67 990.12 216.67 990.12 146.55 997.16 146.55 997.16 76.44 1003.89 76.44 1003.89 146.55 1011.67 146.55 1011.67 216.67 1033.21 216.67 1033.21 261.39 1068.22 261.39 1068.22 331.13 1112.11 331.13"/><rect class="cls-8" x="913.52" y="357.77" width="171.17" height="487.21"/><line class="cls-4" x1="998.82" y1="350.01" x2="998.82" y2="854.9"/><line class="cls-4" x1="968" y1="351.68" x2="968" y2="856.57"/><line class="cls-4" x1="937.17" y1="351.68" x2="937.17" y2="856.57"/><line class="cls-4" x1="1031.32" y1="345.85" x2="1031.32" y2="850.74"/><line class="cls-4" x1="1061.31" y1="342.51" x2="1061.31" y2="847.41"/></g><g><rect class="cls-7" x="1018.18" y="570.86" width="181.68" height="262.91"/><rect class="cls-6" x="1033.87" y="586.18" width="150.11" height="248.27"/><line class="cls-2" x1="1029.92" y1="616.68" x2="1191.33" y2="616.68"/><line class="cls-2" x1="1025.64" y1="652.26" x2="1187.05" y2="652.26"/><line class="cls-2" x1="1025.64" y1="687.84" x2="1187.05" y2="687.84"/><line class="cls-2" x1="1026.25" y1="723.41" x2="1187.66" y2="723.41"/><line class="cls-2" x1="1030.79" y1="758.99" x2="1192.2" y2="758.99"/><line class="cls-2" x1="1067.96" y1="580.23" x2="1067.96" y2="834.91"/><line class="cls-2" x1="1108.92" y1="579.68" x2="1108.92" y2="833.79"/><line class="cls-2" x1="1149.88" y1="579.68" x2="1149.88" y2="835.46"/><line class="cls-2" x1="1032.01" y1="794.57" x2="1193.42" y2="794.57"/></g><path class="cls-9" d="m1401.5,1022.62c-21.99-52-53.47-98.69-93.57-138.79-40.09-40.09-86.78-71.57-138.78-93.56-53.84-22.77-111.03-34.32-169.97-34.32s-116.12,11.55-169.97,34.32c-52,21.99-98.69,53.47-138.78,93.56-40.1,40.1-71.58,86.79-93.57,138.79-22.77,53.84-34.32,111.03-34.32,169.97s11.55,116.12,34.32,169.96c21.99,52,53.47,98.69,93.57,138.79,40.09,40.1,86.78,71.58,138.78,93.57,53.84,22.77,111.03,34.32,169.97,34.32s116.12-11.55,169.97-34.32c52-21.99,98.69-53.47,138.78-93.57,40.1-40.1,71.58-86.79,93.57-138.79,22.77-53.84,34.32-111.03,34.32-169.96s-11.55-116.12-34.32-169.97Zm-31.52,326.6c-20.26,47.92-49.28,90.95-86.24,127.92-36.96,36.96-80.01,65.98-127.92,86.25-28.44,12.03-57.91,20.66-88.12,25.82-.33.07-.66.12-.99.17h0c-22.13,3.74-44.68,5.62-67.51,5.62-54.34,0-107.03-10.64-156.63-31.61-47.92-20.27-90.95-49.29-127.92-86.25-36.96-36.96-65.98-80-86.25-127.92-20.98-49.6-31.62-102.3-31.62-156.63s10.64-107.04,31.62-156.64c20.27-47.91,49.29-90.95,86.25-127.92,36.96-36.96,80-65.98,127.92-86.24,49.6-20.98,102.29-31.62,156.63-31.62s107.03,10.64,156.63,31.62c47.92,20.26,90.96,49.28,127.92,86.24,36.96,36.96,65.98,80.01,86.24,127.92,20.98,49.6,31.62,102.3,31.62,156.64s-10.64,107.03-31.62,156.63Z"/><circle class="cls-8" cx="1000" cy="1192.2" r="402.04"/><g><g><path class="cls-9" d="m1042.34,1060.2h-388.44c43.86-112.45,141.02-198.21,260.44-226.25l128,226.25Z"/><path class="cls-9" d="m1271.26,942.81l-137.2,237.64-67.61-119.5-.42-.74-130.45-230.58c20.74-3.61,42.06-5.48,63.82-5.48,107.41,0,204.15,45.68,271.85,118.67Z"/><path class="cls-9" d="m911.13,1080.83l-200.26,346.85c-51.41-63.63-82.2-144.62-82.2-232.8,0-39.79,6.27-78.13,17.87-114.05h264.58Z"/><path class="cls-9" d="m1051.22,1562.03c-16.93,2.36-34.23,3.59-51.81,3.59-108.71,0-206.5-46.79-274.31-121.34l131.07-227.01,195.05,344.77Z"/><path class="cls-9" d="m1342.77,1334.95c-46.3,113.4-147.15,198.74-269.95,223.4l-126.38-223.4h396.33Z"/><path class="cls-9" d="m1370.15,1194.88c0,41.79-6.92,81.97-19.66,119.44h-269.89l205.02-355.11c52.81,64.06,84.54,146.16,84.54,235.67Z"/></g><polygon class="cls-8" points="1066.46 1060.2 1066.46 1060.94 1066.04 1060.2 1066.46 1060.2"/><polygon class="cls-8" points="1068.68 1334.95 1068.41 1335.43 1067.57 1334.95 1068.68 1334.95"/><path class="cls-1" d="m1369.98,1035.95c-20.26-47.91-49.28-90.95-86.24-127.92-36.96-36.96-80.01-65.98-127.92-86.24-49.6-20.98-102.29-31.62-156.63-31.62s-107.03,10.64-156.63,31.62c-47.92,20.26-90.95,49.28-127.92,86.24-36.96,36.96-65.98,80.01-86.25,127.92-20.98,49.6-31.62,102.3-31.62,156.64s10.64,107.03,31.62,156.63c20.27,47.92,49.29,90.95,86.25,127.92,36.96,36.96,80,65.98,127.92,86.25,49.6,20.98,102.29,31.61,156.63,31.61,22.83,0,45.37-1.88,67.51-5.62h0c.34-.05.66-.11.99-.17,30.21-5.16,59.68-13.79,88.12-25.82,47.92-20.27,90.96-49.29,127.92-86.25,36.96-36.96,65.98-80,86.24-127.92,20.98-49.6,31.62-102.3,31.62-156.63s-10.64-107.04-31.62-156.64Zm-370.57-211.81c107.41,0,204.15,45.68,271.85,118.67l-137.2,237.64-67.61-119.5-.42-.74-130.45-230.58c20.74-3.61,42.06-5.48,63.82-5.48Zm-85.07,9.82l128,226.25h-388.44c43.86-112.45,141.02-198.21,260.44-226.25Zm-203.47,593.72c-51.41-63.63-82.2-144.62-82.2-232.8,0-39.79,6.27-78.13,17.87-114.05h264.58l-200.26,346.85Zm288.54,137.94c-108.71,0-206.5-46.79-274.31-121.34l131.07-227.01,195.05,344.77c-16.93,2.36-34.23,3.59-51.81,3.59Zm73.42-7.27l-126.38-223.4h396.33c-46.3,113.4-147.15,198.74-269.95,223.4Zm277.66-244.03h-269.89l205.02-355.11c52.81,64.06,84.54,146.16,84.54,235.67,0,41.79-6.92,81.97-19.66,119.44Z"/><path class="cls-8" d="m1067.69,1589.2l-.83.47-.16-.3c.34-.05.66-.11.99-.17Z"/></g><text class="cls-10" transform="translate(419.19 1479.36) rotate(55.73)"><tspan x="0" y="0">@</tspan></text><text class="cls-10" transform="translate(552.84 1654.94) rotate(39.77)"><tspan x="0" y="0">j</tspan></text><text class="cls-10" transform="translate(652.86 1734.94) rotate(27.64)"><tspan x="0" y="0">a</tspan></text><text class="cls-10" transform="translate(754.76 1787.96) rotate(17.46)"><tspan x="0" y="0">y</tspan></text><text class="cls-10" transform="translate(895.99 1828.89) rotate(3.46)"><tspan x="0" y="0">_</tspan></text><text class="cls-10" transform="translate(1059.73 1833.01) rotate(-9.53)"><tspan x="0" y="0">f</tspan></text><text class="cls-10" transform="translate(1181.06 1809.7) rotate(-20.39)"><tspan x="0" y="0">l</tspan></text><text class="cls-10" transform="translate(1284.26 1768.17) rotate(-28.44)"><tspan x="0" y="0">i</tspan></text><text class="cls-10" transform="translate(1346.22 1734.97) rotate(-37.1)"><tspan x="0" y="0">c</tspan></text><text class="cls-10" transform="translate(1450.79 1652.15) rotate(-49.32)"><tspan x="0" y="0">k</tspan></text><text class="cls-10" transform="translate(1540.24 1542.12) rotate(-61.56)"><tspan x="0" y="0">s</tspan></text></svg>